<svg version="1.1" id="Layer_1" xmlns="http://www.w3.org/2000/svg" xmlns:xlink="http://www.w3.org/1999/xlink" x="0px" y="0px"
	 width="100%" viewBox="0 0 148 142" enable-background="new 0 0 148 142" xml:space="preserve">
<path fill="none" opacity="1.000000" stroke="#000000" stroke-linecap="round" stroke-linejoin="round" stroke-width="3.000000"
	d="
M139.000000,85.000000 
	C140.124908,80.031944 139.419037,74.997124 139.457947,69.999672 
	C139.574753,55.000584 139.510483,39.999989 139.494934,25.000006 
	C139.488586,18.870785 137.129211,16.506889 131.000000,16.505007 
	C97.000000,16.494564 63.000000,16.494228 29.000002,16.504871 
	C22.201220,16.507000 20.010279,18.701220 20.004932,25.500004 
	C19.990515,43.833324 20.000000,62.166668 20.000000,80.500000 
	C20.000000,84.833336 19.945827,89.167511 20.013624,93.499786 
	C20.099617,98.994751 23.005449,101.953529 28.500095,101.980583 
	C40.999794,102.042130 53.500000,102.000000 66.000000,102.000000 
	C86.666664,102.000000 107.334793,101.856651 127.999321,102.066795 
	C136.933243,102.157639 140.293594,100.030830 139.519058,90.498451 
	C139.384521,88.842720 139.500000,87.166664 139.500000,85.500000 
"/>
<path fill="none" opacity="1.000000" stroke="#000000" stroke-linecap="round" stroke-linejoin="round" stroke-width="3.000000"
	d="
M138.500000,85.000000 
	C101.166664,85.000000 63.833328,84.995399 26.500008,85.013817 
	C24.661316,85.014725 22.771816,84.656639 21.000000,85.500000 
"/>
<path fill="none" opacity="1.000000" stroke="#000000" stroke-linecap="round" stroke-linejoin="round" stroke-width="3.000000"
	d="
M69.500000,120.000000 
	C67.393036,120.942780 65.169159,120.386292 62.999447,120.488220 
	C59.293610,120.662315 55.616562,123.578735 56.075546,126.488083 
	C56.615925,129.913330 58.870457,131.973495 62.500050,131.985565 
	C74.166580,132.024353 85.834030,132.071671 97.499596,131.958374 
	C101.227654,131.922165 103.718651,129.298233 103.473869,126.001938 
	C103.182281,122.075424 100.427773,120.611450 96.999115,120.547554 
	C89.001892,120.398514 80.999817,120.525391 73.000237,120.467537 
	C72.011574,120.460388 70.853813,121.043800 70.000000,120.000000 
"/>
<path fill="none" opacity="1.000000" stroke="#000000" stroke-linecap="round" stroke-linejoin="round" stroke-width="3.000000"
	d="
M115.000000,36.000000 
	C117.481544,37.908333 120.022354,37.056465 121.907867,35.395412 
	C123.306732,34.163063 123.666000,31.781443 122.439003,30.043056 
	C121.208061,28.299080 119.337425,26.885061 117.018143,27.562155 
	C114.982635,28.156403 113.288994,29.506519 113.535553,31.996479 
	C113.669540,33.349552 114.166664,34.666668 114.500000,36.000000 
"/>
<path fill="none" opacity="1.000000" stroke="#000000" stroke-linecap="round" stroke-linejoin="round" stroke-width="3.000000"
	d="
M114.000000,36.500000 
	C108.027512,44.784325 99.458122,50.706837 93.520020,59.014313 
	C92.454933,60.504379 90.989372,60.876461 89.517029,60.442249 
	C87.036491,59.710701 85.023483,59.749222 84.018639,62.506794 
	C83.189163,64.783096 83.028435,66.778336 85.440750,68.579361 
	C87.557755,70.159912 89.530556,69.796318 90.911156,68.411430 
	C92.786469,66.530296 94.264694,64.045235 91.510513,61.488674 
	C91.427406,61.411533 91.500000,61.166668 91.500000,61.000000 
"/>
<path fill="none" opacity="1.000000" stroke="#000000" stroke-linecap="round" stroke-linejoin="round" stroke-width="3.000000"
	d="
M62.000000,46.000000 
	C56.166668,53.166668 50.333332,60.333332 44.500000,67.500000 
"/>
<path fill="none" opacity="1.000000" stroke="#000000" stroke-linecap="round" stroke-linejoin="round" stroke-width="3.000000"
	d="
M70.500000,45.000000 
	C71.153236,42.567200 70.891815,40.201843 68.947937,38.561703 
	C67.616516,37.438320 65.315056,37.447445 64.078102,38.139580 
	C61.810879,39.408188 60.730186,41.748283 62.004005,44.498142 
	C63.231857,47.148758 65.322762,47.890453 67.989632,46.969971 
	C68.888466,46.659729 69.666672,46.000004 70.500000,45.500004 
"/>
<path fill="none" opacity="1.000000" stroke="#000000" stroke-linecap="round" stroke-linejoin="round" stroke-width="3.000000"
	d="
M44.500000,68.000000 
	C46.597832,72.380997 46.058098,75.439529 43.000000,76.500000 
	C40.432384,77.390388 37.770157,75.765564 36.978542,73.006157 
	C36.044949,69.751839 37.996098,68.387108 40.518917,67.557533 
	C41.571747,67.211334 42.833332,67.500000 44.000000,67.500000 
"/>
<path fill="none" opacity="1.000000" stroke="#000000" stroke-linecap="round" stroke-linejoin="round" stroke-width="3.000000"
	d="
M72.500000,103.000000 
	C72.083298,108.606056 69.570900,113.831070 69.500000,119.500000 
"/>
<path fill="none" opacity="1.000000" stroke="#000000" stroke-linecap="round" stroke-linejoin="round" stroke-width="3.000000"
	d="
M87.000000,103.000000 
	C88.166664,108.500000 89.333336,114.000000 90.500000,119.500000 
"/>
<path fill="none" opacity="1.000000" stroke="#000000" stroke-linecap="round" stroke-linejoin="round" stroke-width="3.000000"
	d="
M71.000000,45.500000 
	C75.500000,50.500000 80.000000,55.500000 84.500000,60.500000 
"/>
<path fill="none" opacity="1.000000" stroke="#000000" stroke-linecap="round" stroke-linejoin="round" stroke-width="3.000000"
	d="
M87.500000,93.000000 
	C82.500000,93.000000 77.500000,93.000000 72.500000,93.000000 
"/>
</svg>