<svg version="1.1" id="Layer_1" xmlns="http://www.w3.org/2000/svg" xmlns:xlink="http://www.w3.org/1999/xlink" x="0px" y="0px"
	 width="100%" viewBox="0 0 355 103" enable-background="new 0 0 355 103" xml:space="preserve">
<path fill="#FFFFFF" opacity="1.000000" stroke="none" 
	d="
M236.000000,104.000000 
	C157.333359,104.000000 79.166702,104.000000 1.000042,104.000000 
	C1.000028,69.666695 1.000028,35.333385 1.000014,1.000060 
	C119.333282,1.000040 237.666565,1.000040 355.999878,1.000020 
	C355.999939,35.333271 355.999939,69.666542 355.999969,103.999908 
	C316.166656,104.000000 276.333344,104.000000 236.000000,104.000000 
M245.575531,58.543526 
	C245.575531,55.131271 245.575531,51.719021 245.575531,48.339214 
	C242.403214,48.339214 239.962799,48.339214 237.041016,48.339214 
	C237.041016,59.923691 237.041016,71.306168 237.041016,82.968559 
	C228.927338,82.968559 221.295273,83.030785 213.664642,82.952065 
	C205.045425,82.863152 200.718536,78.709526 200.614960,70.097733 
	C200.466843,57.779808 200.467758,45.457478 200.614639,33.139526 
	C200.717728,24.493765 204.539627,20.753075 213.218338,20.605766 
	C221.207199,20.470163 229.200195,20.589714 237.191299,20.570524 
	C243.320847,20.555805 243.965073,19.767473 243.063843,13.320926 
	C231.642242,13.320926 220.163559,12.839655 208.746078,13.468908 
	C199.123581,13.999235 192.501556,21.496023 192.234299,31.577244 
	C191.881470,44.886250 191.910553,58.217175 192.223541,71.528137 
	C192.456253,81.425240 198.358154,88.986786 207.515259,89.596390 
	C220.035248,90.429886 232.652328,89.804558 245.575455,89.804558 
	C245.575455,79.460358 245.575455,69.496254 245.575531,58.543526 
M164.222504,86.173378 
	C155.374939,61.780567 146.527390,37.387756 137.769333,13.241686 
	C134.224457,13.241686 131.401535,13.241686 128.196503,13.241686 
	C119.315605,38.665203 109.329170,63.746918 100.757156,89.900269 
	C104.581863,89.900269 107.055252,89.900269 109.714706,89.900269 
	C111.973343,83.255981 114.220726,76.644814 116.377014,70.301605 
	C127.875359,70.301605 138.693756,70.301605 149.662109,70.301605 
	C151.879532,76.880241 154.078232,83.403358 156.306076,90.012939 
	C158.377808,90.012939 160.306732,90.369576 161.988770,89.879272 
	C162.998856,89.584854 163.623734,87.968987 164.222504,86.173378 
M26.988157,30.501572 
	C26.988157,50.246178 26.988157,69.990784 26.988157,89.802040 
	C29.929216,89.802040 32.350105,89.802040 35.248337,89.802040 
	C35.248337,81.219986 35.248337,72.838051 35.248337,64.084633 
	C44.852779,64.084633 53.982735,64.289238 63.099453,64.029358 
	C72.992241,63.747349 79.841461,56.672085 80.121010,46.805222 
	C80.267036,41.651138 80.248741,36.488194 80.148918,31.332266 
	C79.960968,21.624846 73.785828,14.067061 64.163559,13.542151 
	C51.941360,12.875411 39.655224,13.380806 26.988180,13.380806 
	C26.988180,18.926811 26.988180,24.214607 26.988157,30.501572 
M323.356140,20.547979 
	C332.653809,20.547916 332.929962,20.298876 331.323608,13.461721 
	C315.216278,13.461721 299.130005,13.461721 283.016937,13.461721 
	C283.016937,39.050552 283.016937,64.321938 283.016937,89.702621 
	C299.446991,89.702621 315.666138,89.702621 331.694824,89.702621 
	C331.694824,87.309944 331.694824,85.238480 331.694824,82.748817 
	C317.970551,82.748817 304.564728,82.748817 291.225525,82.748817 
	C291.225525,73.195717 291.225525,64.073730 291.225525,54.551064 
	C301.525330,54.551064 311.623260,54.551064 321.895447,54.551064 
	C321.895447,51.924278 321.895447,49.704823 321.895447,47.068748 
	C311.525238,47.068748 301.441772,47.068748 291.251221,47.068748 
	C291.251221,38.052143 291.251221,29.458622 291.251221,20.547909 
	C301.785980,20.547909 312.089661,20.547909 323.356140,20.547979 
z"/>
<path fill="#202020" opacity="1.000000" stroke="none" 
	d="
M245.575500,59.037838 
	C245.575455,69.496254 245.575455,79.460358 245.575455,89.804558 
	C232.652328,89.804558 220.035248,90.429886 207.515259,89.596390 
	C198.358154,88.986786 192.456253,81.425240 192.223541,71.528137 
	C191.910553,58.217175 191.881470,44.886250 192.234299,31.577244 
	C192.501556,21.496023 199.123581,13.999235 208.746078,13.468908 
	C220.163559,12.839655 231.642242,13.320926 243.063843,13.320926 
	C243.965073,19.767473 243.320847,20.555805 237.191299,20.570524 
	C229.200195,20.589714 221.207199,20.470163 213.218338,20.605766 
	C204.539627,20.753075 200.717728,24.493765 200.614639,33.139526 
	C200.467758,45.457478 200.466843,57.779808 200.614960,70.097733 
	C200.718536,78.709526 205.045425,82.863152 213.664642,82.952065 
	C221.295273,83.030785 228.927338,82.968559 237.041016,82.968559 
	C237.041016,71.306168 237.041016,59.923691 237.041016,48.339214 
	C239.962799,48.339214 242.403214,48.339214 245.575531,48.339214 
	C245.575531,51.719021 245.575531,55.131271 245.575500,59.037838 
z"/>
<path fill="#181818" opacity="1.000000" stroke="none" 
	d="
M164.322113,86.560196 
	C163.623734,87.968987 162.998856,89.584854 161.988770,89.879272 
	C160.306732,90.369576 158.377808,90.012939 156.306076,90.012939 
	C154.078232,83.403358 151.879532,76.880241 149.662109,70.301605 
	C138.693756,70.301605 127.875359,70.301605 116.377014,70.301605 
	C114.220726,76.644814 111.973343,83.255981 109.714706,89.900269 
	C107.055252,89.900269 104.581863,89.900269 100.757156,89.900269 
	C109.329170,63.746918 119.315605,38.665203 128.196503,13.241686 
	C131.401535,13.241686 134.224457,13.241686 137.769333,13.241686 
	C146.527390,37.387756 155.374939,61.780567 164.322113,86.560196 
M146.434540,61.949768 
	C142.108292,49.211884 137.782028,36.473999 132.997833,22.387779 
	C128.083954,36.816280 123.678810,49.750973 119.215012,62.857914 
	C128.604462,62.857914 137.403961,62.857914 146.434540,61.949768 
z"/>
<path fill="#171717" opacity="1.000000" stroke="none" 
	d="
M26.988169,30.001987 
	C26.988180,24.214607 26.988180,18.926811 26.988180,13.380806 
	C39.655224,13.380806 51.941360,12.875411 64.163559,13.542151 
	C73.785828,14.067061 79.960968,21.624846 80.148918,31.332266 
	C80.248741,36.488194 80.267036,41.651138 80.121010,46.805222 
	C79.841461,56.672085 72.992241,63.747349 63.099453,64.029358 
	C53.982735,64.289238 44.852779,64.084633 35.248337,64.084633 
	C35.248337,72.838051 35.248337,81.219986 35.248337,89.802040 
	C32.350105,89.802040 29.929216,89.802040 26.988157,89.802040 
	C26.988157,69.990784 26.988157,50.246178 26.988169,30.001987 
M69.956398,52.222252 
	C73.545395,43.901501 72.616020,35.293793 70.784515,26.910704 
	C69.945343,23.069710 66.262230,20.831507 61.995190,20.798012 
	C53.212757,20.729073 44.429401,20.777279 35.547470,20.777279 
	C35.547470,32.921204 35.547470,44.939087 35.547470,57.139038 
	C44.057076,57.139038 52.227276,57.528450 60.327007,56.942993 
	C63.466270,56.716084 66.446114,54.283676 69.956398,52.222252 
z"/>
<path fill="#1A1A1A" opacity="1.000000" stroke="none" 
	d="
M322.874725,20.547943 
	C312.089661,20.547909 301.785980,20.547909 291.251221,20.547909 
	C291.251221,29.458622 291.251221,38.052143 291.251221,47.068748 
	C301.441772,47.068748 311.525238,47.068748 321.895447,47.068748 
	C321.895447,49.704823 321.895447,51.924278 321.895447,54.551064 
	C311.623260,54.551064 301.525330,54.551064 291.225525,54.551064 
	C291.225525,64.073730 291.225525,73.195717 291.225525,82.748817 
	C304.564728,82.748817 317.970551,82.748817 331.694824,82.748817 
	C331.694824,85.238480 331.694824,87.309944 331.694824,89.702621 
	C315.666138,89.702621 299.446991,89.702621 283.016937,89.702621 
	C283.016937,64.321938 283.016937,39.050552 283.016937,13.461721 
	C299.130005,13.461721 315.216278,13.461721 331.323608,13.461721 
	C332.929962,20.298876 332.653809,20.547916 322.874725,20.547943 
z"/>
<path fill="#F4F4F4" opacity="1.000000" stroke="none" 
	d="
M146.319000,62.403839 
	C137.403961,62.857914 128.604462,62.857914 119.215012,62.857914 
	C123.678810,49.750973 128.083954,36.816280 132.997833,22.387779 
	C137.782028,36.473999 142.108292,49.211884 146.319000,62.403839 
z"/>
<path fill="#F5F5F5" opacity="1.000000" stroke="none" 
	d="
M69.727493,52.539124 
	C66.446114,54.283676 63.466270,56.716084 60.327007,56.942993 
	C52.227276,57.528450 44.057076,57.139038 35.547470,57.139038 
	C35.547470,44.939087 35.547470,32.921204 35.547470,20.777279 
	C44.429401,20.777279 53.212757,20.729073 61.995190,20.798012 
	C66.262230,20.831507 69.945343,23.069710 70.784515,26.910704 
	C72.616020,35.293793 73.545395,43.901501 69.727493,52.539124 
z"/>
</svg>